<?xml version="1.0" standalone="no"?>
<!DOCTYPE svg PUBLIC "-//W3C//DTD SVG 20010904//EN"
 "http://www.w3.org/TR/2001/REC-SVG-20010904/DTD/svg10.dtd">
<svg version="1.0" xmlns="http://www.w3.org/2000/svg"
 width="408.000000pt" height="283.000000pt" viewBox="0 0 408.000000 283.000000"
 preserveAspectRatio="xMidYMid meet">

<g transform="translate(0.000000,283.000000) scale(0.100000,-0.100000)"
fill="#000000" stroke="none">
<path d="M1971 2270 c-182 -247 -331 -452 -331 -454 0 -3 85 -7 189 -8 l188
-3 -128 -339 c-71 -187 -127 -341 -126 -343 2 -1 154 204 339 455 l337 457
-190 3 c-104 1 -189 5 -189 7 0 4 196 534 239 648 6 15 9 27 7 27 -2 0 -153
-202 -335 -450z"/>
<path d="M1930 2690 c-260 -41 -477 -201 -590 -433 -53 -110 -73 -199 -73
-328 0 -261 113 -479 333 -640 37 -27 140 -83 144 -77 1 2 12 29 24 61 l21 57
-57 29 c-239 122 -381 417 -328 682 52 259 250 461 506 515 49 10 100 14 147
11 l73 -5 40 56 c36 52 38 57 21 64 -33 12 -203 17 -261 8z"/>
<path d="M2307 2587 c-9 -30 -17 -56 -17 -59 0 -3 30 -23 67 -44 90 -53 153
-112 207 -193 56 -84 83 -146 102 -234 30 -145 11 -287 -58 -426 -107 -217
-342 -357 -587 -350 l-75 2 -42 -54 c-40 -52 -41 -54 -20 -62 41 -16 185 -20
263 -7 332 53 582 292 649 620 33 167 -1 376 -87 525 -69 120 -199 245 -321
306 -32 16 -59 29 -61 29 -2 0 -11 -24 -20 -53z"/>
<path d="M2408 879 c-24 -14 -23 -52 3 -75 19 -17 23 -17 47 -3 32 17 39 50
17 73 -19 18 -42 20 -67 5z"/>
<path d="M1320 645 l0 -235 45 0 45 0 0 99 c0 140 14 171 76 171 51 0 59 -20
63 -152 l3 -118 44 0 44 0 0 120 c0 128 -10 170 -48 204 -30 26 -101 32 -140
12 -17 -9 -33 -16 -37 -16 -3 0 -5 34 -5 75 l0 75 -45 0 -45 0 0 -235z"/>
<path d="M100 825 l0 -45 65 0 65 0 0 -185 0 -185 50 0 50 0 0 185 0 185 65 0
65 0 0 45 0 45 -180 0 -180 0 0 -45z"/>
<path d="M1980 825 l0 -45 65 0 65 0 2 -182 3 -183 48 -3 47 -3 0 185 0 186
65 0 65 0 0 45 0 45 -180 0 -180 0 0 -45z"/>
<path d="M2600 805 c0 -38 -3 -45 -20 -45 -17 0 -20 -7 -20 -40 0 -33 3 -40
20 -40 19 0 20 -7 20 -109 0 -128 13 -155 80 -166 60 -10 80 0 80 41 0 27 -4
34 -19 34 -40 0 -51 26 -51 116 l0 84 35 0 c34 0 35 1 35 40 0 39 -1 40 -35
40 -35 0 -35 0 -35 45 l0 45 -45 0 -45 0 0 -45z"/>
<path d="M591 748 c-112 -38 -155 -187 -78 -275 52 -59 112 -78 189 -62 46 10
108 50 108 70 0 5 -14 16 -31 24 -28 15 -33 15 -56 -1 -49 -32 -153 -11 -153
31 0 13 23 15 136 15 l136 0 -7 47 c-10 66 -29 99 -76 130 -45 30 -115 38
-168 21z m117 -84 c12 -8 22 -24 22 -35 0 -17 -7 -19 -80 -19 -89 0 -102 12
-54 49 32 25 81 27 112 5z"/>
<path d="M1027 750 c-150 -45 -171 -244 -34 -320 78 -44 200 -19 240 49 l16
28 -38 13 c-36 11 -41 11 -62 -9 -26 -24 -93 -29 -120 -8 -44 34 -51 97 -15
142 21 26 31 30 71 30 37 0 51 -5 65 -23 l19 -23 42 18 42 18 -34 34 c-55 56
-119 73 -192 51z"/>
<path d="M2905 737 c-93 -53 -115 -197 -42 -275 50 -54 135 -70 198 -38 39 20
39 20 39 1 0 -11 12 -15 45 -15 l45 0 0 170 0 170 -44 0 c-24 0 -46 -5 -48
-11 -3 -8 -14 -7 -35 5 -45 23 -110 20 -158 -7z m146 -67 c51 -28 61 -119 17
-160 -25 -23 -93 -27 -119 -7 -69 53 -36 177 48 177 19 0 43 -5 54 -10z"/>
<path d="M3405 745 c-19 -10 -31 -12 -33 -6 -2 6 -24 11 -48 11 l-44 0 0 -170
0 -170 45 0 45 0 0 106 c0 100 8 139 34 156 18 12 74 9 83 -4 4 -7 10 -67 13
-133 l5 -120 48 -3 47 -3 0 113 c0 130 -10 175 -45 208 -32 30 -108 38 -150
15z"/>
<path d="M3751 747 c-68 -26 -92 -97 -50 -151 19 -24 59 -40 152 -60 28 -7 36
-29 15 -42 -18 -12 -86 -5 -118 11 -27 14 -30 14 -49 -11 -12 -15 -21 -30 -21
-35 0 -5 18 -18 41 -30 79 -40 210 -23 239 30 5 11 10 38 10 59 0 53 -38 86
-117 102 -69 14 -88 27 -72 46 15 18 51 18 96 -1 36 -15 37 -15 60 12 12 15
22 31 23 34 0 4 -17 15 -37 25 -48 22 -128 27 -172 11z"/>
<path d="M2390 580 l0 -170 45 0 45 0 0 170 0 170 -45 0 -45 0 0 -170z"/>
<path d="M1720 590 l0 -40 100 0 100 0 0 40 0 40 -100 0 -100 0 0 -40z"/>
<path d="M1075 281 c29 -6 30 -8 36 -81 l5 -75 2 77 2 77 33 4 c17 2 1 4 -38
4 -44 0 -59 -2 -40 -6z"/>
<path d="M1320 210 l0 -80 53 2 52 1 -45 6 c-42 6 -45 8 -45 36 0 27 4 31 40
36 l40 6 -43 2 c-41 1 -43 2 -40 29 3 24 8 28 48 33 l45 6 -52 1 -53 2 0 -80z"/>
<path d="M1592 270 c-31 -29 -30 -89 1 -118 27 -26 79 -29 97 -7 15 18 7 19
-20 3 -27 -17 -72 1 -84 33 -22 63 26 114 85 92 26 -10 29 -10 19 3 -18 21
-73 17 -98 -6z"/>
<path d="M1850 216 c0 -41 5 -78 10 -81 6 -4 10 10 10 34 l0 41 44 0 45 0 4
-42 c2 -24 4 -5 4 42 0 47 -2 68 -4 48 -4 -38 -5 -38 -49 -38 -44 0 -44 0 -44
35 0 19 -4 35 -10 35 -6 0 -10 -31 -10 -74z"/>
<path d="M2143 283 c27 -4 27 -5 27 -79 0 -43 4 -74 10 -74 6 0 10 31 10 74 0
74 0 75 28 79 15 2 -2 4 -38 4 -36 0 -53 -2 -37 -4z"/>
<path d="M2380 238 c0 -69 17 -102 54 -106 47 -6 66 21 66 95 0 84 -18 81 -22
-3 -2 -51 -7 -70 -20 -78 -35 -21 -53 4 -56 78 -3 78 -22 90 -22 14z"/>
<path d="M2660 210 l0 -80 31 0 c17 0 39 5 50 10 23 13 25 55 3 68 -14 8 -14
10 0 21 9 8 16 17 16 22 0 19 -34 39 -66 39 l-34 0 0 -80z m68 61 c8 -5 12
-17 10 -27 -4 -25 -56 -32 -64 -10 -14 36 20 59 54 37z m13 -77 c19 -23 -1
-49 -37 -49 -30 0 -42 20 -30 51 7 19 50 18 67 -2z"/>
<path d="M2920 210 l0 -80 53 2 c50 1 50 2 10 5 -41 4 -43 5 -43 38 0 32 2 34
38 38 l37 4 -37 1 c-35 2 -38 4 -38 31 0 28 3 30 43 34 40 3 40 4 -10 5 l-53
2 0 -80z"/>
</g>
</svg>
