<svg xmlns="http://www.w3.org/2000/svg" xmlns:xlink="http://www.w3.org/1999/xlink" xmlns:serif="http://www.serif.com/" viewBox="0 0 16 20" version="1.1" xml:space="preserve" style="" x="0px" y="0px" fill-rule="evenodd" clip-rule="evenodd" stroke-linejoin="round" stroke-miterlimit="2"><rect x="0" y="0" width="16" height="16" style="" fill="none"/><path d="M9,11.02l-1,0c-0.276,0 -0.5,0.224 -0.5,0.5c-0,0.276 0.224,0.5 0.5,0.5l1,0l0,1c0,0.276 0.224,0.5 0.5,0.5c0.276,0 0.5,-0.224 0.5,-0.5l0,-1l1,0c0.276,0 0.5,-0.224 0.5,-0.5c-0,-0.276 -0.224,-0.5 -0.5,-0.5l-1,0l0,-1c0,-0.276 -0.224,-0.5 -0.5,-0.5c-0.276,0 -0.5,0.224 -0.5,0.5l0,1Zm2.5,-1.297l2.347,0.753c0.152,0.049 0.319,0.022 0.448,-0.072c0.129,-0.094 0.205,-0.244 0.205,-0.404l0,-4c0,-0.161 -0.078,-0.312 -0.208,-0.406c-0.131,-0.094 -0.299,-0.119 -0.452,-0.068l-2.34,0.79l-0,-0.409c0,-0.506 -0.201,-0.991 -0.559,-1.348c-0.357,-0.358 -0.842,-0.559 -1.348,-0.559c-1.687,-0 -4.499,-0 -6.186,-0c-0.506,-0 -0.991,0.201 -1.348,0.559c-0.358,0.357 -0.559,0.842 -0.559,1.348c-0,1.217 -0,2.969 -0,4.186c-0,0.506 0.201,0.991 0.559,1.348c0.357,0.358 0.842,0.559 1.348,0.559c0.901,-0 3.032,-0 3.032,-0c0.276,0 0.5,-0.224 0.5,-0.5c0,-0.276 -0.224,-0.5 -0.5,-0.5l-3.032,-0c-0.241,0 -0.471,-0.096 -0.641,-0.266c-0.17,-0.17 -0.266,-0.4 -0.266,-0.641l-0,-4.186c-0,-0.241 0.096,-0.471 0.266,-0.641c0.17,-0.17 0.4,-0.266 0.641,-0.266l6.186,0c0.241,-0 0.471,0.096 0.641,0.266c0.17,0.17 0.266,0.4 0.266,0.641l0,4.06c0,0.276 0.224,0.5 0.5,0.5c0.276,0 0.5,-0.224 0.5,-0.5l0,-0.244Zm0,-2.351l0,1.3l2,0.642c0,0 0,-2.617 0,-2.617l-2,0.675Z"/><text x="0" y="31" fill="#000000" font-size="5px" font-weight="bold" font-family="'Helvetica Neue', Helvetica, Arial-Unicode, Arial, Sans-serif">Created by Bayu Purnama Jatnika</text><text x="0" y="36" fill="#000000" font-size="5px" font-weight="bold" font-family="'Helvetica Neue', Helvetica, Arial-Unicode, Arial, Sans-serif">from the Noun Project</text></svg>