<svg xmlns="http://www.w3.org/2000/svg" width="24" height="24" fill="none" viewBox="0 0 24 24" id="user-channel"><path fill="#000" fill-rule="evenodd" d="M3.25 5C3.25 4.0335 4.0335 3.25 5 3.25H19C19.9665 3.25 20.75 4.0335 20.75 5V6.5C20.75 6.91421 20.4142 7.25 20 7.25C19.5858 7.25 19.25 6.91421 19.25 6.5V5C19.25 4.86193 19.1381 4.75 19 4.75H5C4.86193 4.75 4.75 4.86193 4.75 5V19C4.75 19.1381 4.86193 19.25 5 19.25H19C19.1381 19.25 19.25 19.1381 19.25 19V10.5C19.25 10.0858 19.5858 9.75 20 9.75C20.4142 9.75 20.75 10.0858 20.75 10.5V19C20.75 19.9665 19.9665 20.75 19 20.75H5C4.0335 20.75 3.25 19.9665 3.25 19V5Z" clip-rule="evenodd"></path><path fill="#000" fill-rule="evenodd" d="M12 7.75C11.3096 7.75 10.75 8.30964 10.75 9 10.75 9.69036 11.3096 10.25 12 10.25 12.6904 10.25 13.25 9.69036 13.25 9 13.25 8.30964 12.6904 7.75 12 7.75zM9.25 9C9.25 7.48122 10.4812 6.25 12 6.25 13.5188 6.25 14.75 7.48122 14.75 9 14.75 10.5188 13.5188 11.75 12 11.75 10.4812 11.75 9.25 10.5188 9.25 9zM8.83697 16.25H15.163C14.8245 14.8166 13.5368 13.75 12 13.75 10.4632 13.75 9.17555 14.8166 8.83697 16.25zM7.25 17C7.25 14.3766 9.37665 12.25 12 12.25 14.6234 12.25 16.75 14.3766 16.75 17 16.75 17.4142 16.4142 17.75 16 17.75H8C7.58579 17.75 7.25 17.4142 7.25 17z" clip-rule="evenodd"></path></svg>