<svg version="1.1" id="Layer_1" xmlns="http://www.w3.org/2000/svg" xmlns:xlink="http://www.w3.org/1999/xlink" x="0px" y="0px"
	 width="100%" viewBox="0 0 219 190" enable-background="new 0 0 219 190" xml:space="preserve">
<path fill="#FFFFFF" opacity="1.000000" stroke="none" 
	d="
M220.000000,102.000000 
	C220.000000,131.604446 220.000000,161.208893 220.000000,191.000000 
	C180.312637,191.000000 140.624969,191.000000 100.513588,190.630737 
	C100.833908,189.749542 101.515465,189.085999 102.331825,188.749527 
	C109.196312,185.920349 110.003204,184.750885 110.003334,177.314072 
	C110.003471,169.819901 109.975967,162.325516 110.030602,154.831741 
	C110.039619,153.595871 110.112122,152.209686 110.657982,151.152527 
	C114.698006,143.328308 118.525803,135.363510 123.090721,127.850243 
	C127.421410,120.722496 132.401733,113.965935 137.416489,107.286484 
	C140.258759,103.500702 144.577225,104.886520 148.596268,104.922577 
	C168.412598,105.100365 188.232071,104.917450 208.048828,105.070335 
	C212.410889,105.103989 216.447067,104.714569 220.000000,102.000000 
z"/>
<path fill="#020203" opacity="1.000000" stroke="none" 
	d="
M220.000000,101.531342 
	C216.447067,104.714569 212.410889,105.103989 208.048828,105.070335 
	C188.232071,104.917450 168.412598,105.100365 148.596268,104.922577 
	C144.577225,104.886520 140.258759,103.500702 137.416489,107.286484 
	C132.401733,113.965935 127.421410,120.722496 123.090721,127.850243 
	C118.525803,135.363510 114.698006,143.328308 110.657982,151.152527 
	C110.112122,152.209686 110.039619,153.595871 110.030602,154.831741 
	C109.975967,162.325516 110.003471,169.819901 110.003334,177.314072 
	C110.003204,184.750885 109.196312,185.920349 102.331825,188.749527 
	C101.515465,189.085999 100.833908,189.749542 100.044930,190.630737 
	C95.643097,191.000000 91.286201,191.000000 86.499619,190.611984 
	C84.193298,189.005219 81.784401,188.178650 80.542053,186.492538 
	C77.120468,181.848816 73.452255,177.159058 71.214272,171.918411 
	C66.567474,161.037094 65.847641,149.515549 67.748131,137.807510 
	C68.685333,132.033813 69.247650,126.199249 70.012817,120.128685 
	C68.850418,120.066040 68.046227,119.984962 67.242035,119.984955 
	C52.437450,119.984856 37.609905,120.467812 22.840439,119.751396 
	C17.498661,119.492279 11.955560,116.971458 7.175082,114.287842 
	C4.823858,112.967934 4.035135,108.904572 2.457742,106.129082 
	C2.177435,105.635872 1.496136,105.370552 1.000000,105.000000 
	C1.000000,102.958336 1.000000,100.916664 1.384984,98.383644 
	C1.910329,97.292542 1.946164,96.642433 2.207146,96.100800 
	C4.958208,90.391335 10.490366,85.285255 6.048532,78.030312 
	C5.951526,77.871872 6.333189,77.474014 6.366962,77.173820 
	C6.876941,72.640938 7.950885,68.459526 10.750788,64.561600 
	C12.017070,62.798725 11.820615,59.574341 11.460098,57.135349 
	C10.586814,51.227371 10.568667,45.698898 14.613631,40.736557 
	C15.307774,39.884991 15.422439,38.073044 15.068110,36.933876 
	C12.723166,29.394867 14.493931,22.200069 18.993116,16.558205 
	C23.659800,10.706305 30.300014,6.940100 38.470509,6.964885 
	C66.585289,7.050171 94.700775,7.063018 122.815292,6.941585 
	C128.309677,6.917853 133.486069,6.912690 138.002014,10.884805 
	C139.529648,12.228469 142.141205,12.776457 144.276520,12.823662 
	C145.496490,12.850632 147.674500,11.272473 147.835892,10.182333 
	C148.511551,5.618753 150.392975,2.339866 155.000000,1.000000 
	C176.609421,1.000000 198.218826,1.000000 220.000000,1.000000 
	C220.000000,34.354031 220.000000,67.708359 220.000000,101.531342 
M111.513359,132.983032 
	C115.852844,126.297867 120.462044,119.769470 124.462318,112.887138 
	C129.268585,104.618141 135.923599,98.344238 144.014893,93.593948 
	C147.613983,91.480965 149.063049,88.865685 149.041245,84.798515 
	C148.938614,65.642769 148.889343,46.485115 149.079727,27.330715 
	C149.120758,23.203115 147.943756,21.448381 143.721878,21.937597 
	C142.713013,22.054501 141.237473,21.681007 140.607849,20.972265 
	C135.723267,15.473976 129.306381,14.974408 122.605736,14.985596 
	C95.453850,15.030924 68.300781,14.889400 41.151089,15.137536 
	C37.395458,15.171862 33.176834,16.219591 30.007189,18.160906 
	C22.963871,22.474728 21.431623,32.022415 27.408413,35.768131 
	C28.354216,36.360874 29.040228,37.368145 29.846354,38.183762 
	C28.800737,38.827469 27.807253,39.584084 26.700396,40.095154 
	C22.127470,42.206585 19.575640,45.768070 19.020025,50.724979 
	C18.448736,55.821751 19.985331,59.683369 25.410578,61.194679 
	C25.927372,61.338638 26.278131,62.078629 25.948233,61.721397 
	C23.292744,63.889103 21.072495,66.353035 18.319437,67.810593 
	C12.912973,70.672935 13.505627,75.620674 14.311359,79.924133 
	C14.685919,81.924675 18.262682,83.344193 20.426846,84.975372 
	C20.854668,85.297836 21.460770,85.383766 22.590071,85.804138 
	C21.198437,86.714622 20.489410,87.452583 19.640556,87.689468 
	C14.066852,89.244835 12.393838,94.375290 10.370758,98.646904 
	C8.040748,103.566589 13.789486,110.981453 19.260410,110.989502 
	C32.086769,111.008369 44.913177,110.995552 57.739567,110.995567 
	C64.685631,110.995575 71.631699,110.995575 79.650307,110.995575 
	C78.525986,119.401985 77.106766,127.127968 76.555359,134.915390 
	C75.956268,143.376175 75.189842,152.026779 76.322876,160.345871 
	C77.259537,167.223038 80.843765,173.742493 83.308434,180.400620 
	C83.438881,180.752991 84.078156,180.906815 84.464401,181.176224 
	C89.179161,184.464905 94.483360,183.801910 98.979866,181.707169 
	C100.854301,180.833969 101.266052,176.388580 101.915573,173.472305 
	C102.339737,171.567856 102.196838,169.468399 101.962807,167.497269 
	C100.474602,154.962555 103.912598,143.785202 111.513359,132.983032 
M174.500580,8.948847 
	C168.411819,8.948847 162.323059,8.948847 156.242630,8.948847 
	C156.242630,38.642242 156.242630,67.571732 156.242630,96.707108 
	C174.867538,96.707108 193.253510,96.707108 211.767197,96.707108 
	C211.767197,67.374649 211.767197,38.331924 211.767197,8.948820 
	C199.443314,8.948820 187.471863,8.948820 174.500580,8.948847 
z"/>
<path fill="#FFFFFF" opacity="1.000000" stroke="none" 
	d="
M1.000000,105.468658 
	C1.496136,105.370552 2.177435,105.635872 2.457742,106.129082 
	C4.035135,108.904572 4.823858,112.967934 7.175082,114.287842 
	C11.955560,116.971458 17.498661,119.492279 22.840439,119.751396 
	C37.609905,120.467812 52.437450,119.984856 67.242035,119.984955 
	C68.046227,119.984962 68.850418,120.066040 70.012817,120.128685 
	C69.247650,126.199249 68.685333,132.033813 67.748131,137.807510 
	C65.847641,149.515549 66.567474,161.037094 71.214272,171.918411 
	C73.452255,177.159058 77.120468,181.848816 80.542053,186.492538 
	C81.784401,188.178650 84.193298,189.005219 86.034966,190.611984 
	C57.739334,191.000000 29.478668,191.000000 1.000000,191.000000 
	C1.000000,162.646149 1.000000,134.291733 1.000000,105.468658 
z"/>
<path fill="#FEFEFE" opacity="1.000000" stroke="none" 
	d="
M154.531342,1.000000 
	C150.392975,2.339866 148.511551,5.618753 147.835892,10.182333 
	C147.674500,11.272473 145.496490,12.850632 144.276520,12.823662 
	C142.141205,12.776457 139.529648,12.228469 138.002014,10.884805 
	C133.486069,6.912690 128.309677,6.917853 122.815292,6.941585 
	C94.700775,7.063018 66.585289,7.050171 38.470509,6.964885 
	C30.300014,6.940100 23.659800,10.706305 18.993116,16.558205 
	C14.493931,22.200069 12.723166,29.394867 15.068110,36.933876 
	C15.422439,38.073044 15.307774,39.884991 14.613631,40.736557 
	C10.568667,45.698898 10.586814,51.227371 11.460098,57.135349 
	C11.820615,59.574341 12.017070,62.798725 10.750788,64.561600 
	C7.950885,68.459526 6.876941,72.640938 6.366962,77.173820 
	C6.333189,77.474014 5.951526,77.871872 6.048532,78.030312 
	C10.490366,85.285255 4.958208,90.391335 2.207146,96.100800 
	C1.946164,96.642433 1.910329,97.292542 1.384984,97.946144 
	C1.000000,65.723114 1.000000,33.446224 1.000000,1.000000 
	C52.020771,1.000000 103.041725,1.000000 154.531342,1.000000 
z"/>
<path fill="#ED1C24" opacity="1.000000" stroke="none" 
	d="
M111.296791,133.289093 
	C103.912598,143.785202 100.474602,154.962555 101.962807,167.497269 
	C102.196838,169.468399 102.339737,171.567856 101.915573,173.472305 
	C101.266052,176.388580 100.854301,180.833969 98.979866,181.707169 
	C94.483360,183.801910 89.179161,184.464905 84.464401,181.176224 
	C84.078156,180.906815 83.438881,180.752991 83.308434,180.400620 
	C80.843765,173.742493 77.259537,167.223038 76.322876,160.345871 
	C75.189842,152.026779 75.956268,143.376175 76.555359,134.915390 
	C77.106766,127.127968 78.525986,119.401985 79.650307,110.995575 
	C71.631699,110.995575 64.685631,110.995575 57.739567,110.995567 
	C44.913177,110.995552 32.086769,111.008369 19.260410,110.989502 
	C13.789486,110.981453 8.040748,103.566589 10.370758,98.646904 
	C12.393838,94.375290 14.066852,89.244835 19.640556,87.689468 
	C20.489410,87.452583 21.198437,86.714622 22.590071,85.804138 
	C21.460770,85.383766 20.854668,85.297836 20.426846,84.975372 
	C18.262682,83.344193 14.685919,81.924675 14.311359,79.924133 
	C13.505627,75.620674 12.912973,70.672935 18.319437,67.810593 
	C21.072495,66.353035 23.292744,63.889103 25.948233,61.721397 
	C26.278131,62.078629 25.927372,61.338638 25.410578,61.194679 
	C19.985331,59.683369 18.448736,55.821751 19.020025,50.724979 
	C19.575640,45.768070 22.127470,42.206585 26.700396,40.095154 
	C27.807253,39.584084 28.800737,38.827469 29.846354,38.183762 
	C29.040228,37.368145 28.354216,36.360874 27.408413,35.768131 
	C21.431623,32.022415 22.963871,22.474728 30.007189,18.160906 
	C33.176834,16.219591 37.395458,15.171862 41.151089,15.137536 
	C68.300781,14.889400 95.453850,15.030924 122.605736,14.985596 
	C129.306381,14.974408 135.723267,15.473976 140.607849,20.972265 
	C141.237473,21.681007 142.713013,22.054501 143.721878,21.937597 
	C147.943756,21.448381 149.120758,23.203115 149.079727,27.330715 
	C148.889343,46.485115 148.938614,65.642769 149.041245,84.798515 
	C149.063049,88.865685 147.613983,91.480965 144.014893,93.593948 
	C135.923599,98.344238 129.268585,104.618141 124.462318,112.887138 
	C120.462044,119.769470 115.852844,126.297867 111.296791,133.289093 
z"/>
<path fill="#ED1C24" opacity="1.000000" stroke="none" 
	d="
M175.000504,8.948833 
	C187.471863,8.948820 199.443314,8.948820 211.767197,8.948820 
	C211.767197,38.331924 211.767197,67.374649 211.767197,96.707108 
	C193.253510,96.707108 174.867538,96.707108 156.242630,96.707108 
	C156.242630,67.571732 156.242630,38.642242 156.242630,8.948847 
	C162.323059,8.948847 168.411819,8.948847 175.000504,8.948833 
z"/>
</svg>