<svg version="1.1" id="Layer_1" xmlns="http://www.w3.org/2000/svg" xmlns:xlink="http://www.w3.org/1999/xlink" x="0px" y="0px"
	 width="100%" viewBox="0 0 220 188" enable-background="new 0 0 220 188" xml:space="preserve">
<path fill="#FFFFFF" opacity="1.000000" stroke="none" 
	d="
M1.000000,89.000000 
	C1.000000,59.729389 1.000000,30.458780 1.000000,1.000000 
	C39.687359,1.000000 78.375023,1.000000 117.575920,1.415965 
	C117.631088,2.880918 117.372406,4.096174 116.668571,4.940233 
	C115.591377,6.232038 113.847046,7.052992 113.014297,8.448739 
	C108.891823,15.358291 110.791786,23.077597 111.409790,30.224003 
	C111.854347,35.364861 111.232903,39.571331 108.836647,43.737026 
	C105.486542,49.560909 102.119949,55.391968 98.413567,60.990337 
	C92.883423,69.343437 87.242165,77.639160 81.251038,85.662743 
	C78.920303,88.784172 75.592575,90.489883 72.042580,86.380104 
	C71.230827,85.440353 69.338882,85.065155 67.940475,85.057114 
	C52.313431,84.967232 36.685604,84.972771 21.058147,85.012993 
	C14.124550,85.030830 6.890604,83.677696 1.000000,89.000000 
z"/>
<path fill="#1A1818" opacity="1.000000" stroke="none" 
	d="
M1.000000,89.468582 
	C6.890604,83.677696 14.124550,85.030830 21.058147,85.012993 
	C36.685604,84.972771 52.313431,84.967232 67.940475,85.057114 
	C69.338882,85.065155 71.230827,85.440353 72.042580,86.380104 
	C75.592575,90.489883 78.920303,88.784172 81.251038,85.662743 
	C87.242165,77.639160 92.883423,69.343437 98.413567,60.990337 
	C102.119949,55.391968 105.486542,49.560909 108.836647,43.737026 
	C111.232903,39.571331 111.854347,35.364861 111.409790,30.224003 
	C110.791786,23.077597 108.891823,15.358291 113.014297,8.448739 
	C113.847046,7.052992 115.591377,6.232038 116.668571,4.940233 
	C117.372406,4.096174 117.631088,2.880918 118.044579,1.415965 
	C124.687645,1.000000 131.375290,1.000000 138.621826,1.336524 
	C143.176468,6.682323 146.696960,11.831808 149.194275,17.923828 
	C154.194885,30.122511 156.011353,42.248188 152.505203,55.153336 
	C151.053711,60.495823 150.635178,66.118942 149.684464,72.000366 
	C167.313156,72.000366 184.094116,72.279701 200.858719,71.877258 
	C208.715271,71.688652 215.868210,72.118202 221.000000,79.000000 
	C221.000000,85.021156 221.000000,91.042305 220.676682,97.651962 
	C217.154785,102.558517 215.286804,106.966309 215.699326,112.787079 
	C215.964676,116.530922 214.209534,121.228798 211.738678,124.107376 
	C209.641495,126.550636 208.614029,127.891212 209.577438,131.083694 
	C211.319946,136.857895 209.502075,142.325806 206.265656,147.071411 
	C204.112030,150.229294 200.210602,152.478729 203.897964,156.999832 
	C204.470291,157.701538 204.222534,159.320862 203.956589,160.419647 
	C200.699341,173.877792 193.171875,182.745300 178.254562,182.913620 
	C151.444565,183.216156 124.628464,183.044113 97.815689,182.911972 
	C95.711853,182.901611 93.464241,181.940140 91.543045,180.927963 
	C86.752518,178.404083 82.521255,174.234756 76.064659,176.524185 
	C75.945763,180.976410 77.017334,186.041550 72.000000,189.000000 
	C51.979103,189.000000 31.958210,189.000000 11.469751,188.588562 
	C10.704931,186.422424 10.534517,184.634613 10.086435,182.919342 
	C8.785249,177.938293 6.630606,173.057800 6.144480,168.009445 
	C4.745161,153.477707 4.084859,138.876343 2.951562,124.316551 
	C2.604215,119.854103 1.667062,115.437561 1.000000,111.000000 
	C1.000000,103.979050 1.000000,96.958107 1.000000,89.468582 
M101.726074,175.000122 
	C127.546188,175.000122 153.366440,174.954056 179.186310,175.032852 
	C185.557755,175.052307 189.582047,171.130844 192.887405,166.698212 
	C194.484360,164.556610 195.433029,160.732193 194.656784,158.319016 
	C193.649673,155.188141 190.630508,152.704498 188.684311,150.207626 
	C194.641785,149.324463 200.290253,144.848434 200.987411,139.996979 
	C202.043671,132.646805 200.630264,129.887222 193.672150,127.066757 
	C204.560379,124.013702 209.879532,117.664680 207.583725,106.394348 
	C204.975342,105.435776 202.283386,104.446480 199.618134,103.467003 
	C201.571198,102.721092 203.547318,101.922089 205.553772,101.208344 
	C211.623764,99.049103 215.152451,92.610214 213.972702,85.783295 
	C213.261322,81.666756 208.645584,79.006828 202.117905,79.003342 
	C183.294189,78.993294 164.470474,78.999786 145.646759,78.999771 
	C143.889084,78.999771 142.131393,78.999771 140.156479,78.999771 
	C141.831528,70.471283 143.587280,62.633381 144.848267,54.716671 
	C145.661453,49.611374 146.863068,44.173981 145.910324,39.270164 
	C144.329575,31.133890 141.420563,23.210682 138.574219,15.378265 
	C135.869446,7.935322 133.672531,6.916893 125.695358,8.079205 
	C121.944489,8.625723 119.542534,9.930839 119.883789,14.749421 
	C120.969589,30.080704 120.801384,45.235943 110.463837,58.216324 
	C108.034615,61.266582 106.517700,65.024979 104.320541,68.281837 
	C96.921799,79.249054 90.302208,90.879257 78.426392,98.036072 
	C77.061264,98.858757 76.115852,101.478737 76.101814,103.274200 
	C75.941582,123.762474 75.994148,144.252472 76.014450,164.741989 
	C76.015717,166.021774 76.221725,167.301361 76.228271,167.376984 
	C82.106323,169.314575 87.213417,171.050674 92.356606,172.672318 
	C95.137642,173.549179 97.980301,174.230560 101.726074,175.000122 
M13.000921,147.667038 
	C13.696108,158.666534 14.391294,169.666046 15.090879,180.735138 
	C33.298370,180.735138 50.869778,180.735138 68.223083,180.735138 
	C68.223083,151.494431 68.223083,122.521950 68.223083,93.266319 
	C65.846405,93.153542 64.226517,93.011528 62.606480,93.009865 
	C46.459225,92.993240 30.309423,93.158150 14.166219,92.901802 
	C9.417212,92.826378 7.417240,94.137527 7.964320,99.061974 
	C9.728099,114.938339 11.337070,130.831894 13.000921,147.667038 
z"/>
<path fill="#FFFFFF" opacity="1.000000" stroke="none" 
	d="
M221.000000,78.531342 
	C215.868210,72.118202 208.715271,71.688652 200.858719,71.877258 
	C184.094116,72.279701 167.313156,72.000366 149.684464,72.000366 
	C150.635178,66.118942 151.053711,60.495823 152.505203,55.153336 
	C156.011353,42.248188 154.194885,30.122511 149.194275,17.923828 
	C146.696960,11.831808 143.176468,6.682323 139.090363,1.336524 
	C166.258392,1.000000 193.516800,1.000000 221.000000,1.000000 
	C221.000000,26.687124 221.000000,52.374905 221.000000,78.531342 
z"/>
<path fill="#FFFFFF" opacity="1.000000" stroke="none" 
	d="
M72.468658,189.000000 
	C77.017334,186.041550 75.945763,180.976410 76.064659,176.524185 
	C82.521255,174.234756 86.752518,178.404083 91.543045,180.927963 
	C93.464241,181.940140 95.711853,182.901611 97.815689,182.911972 
	C124.628464,183.044113 151.444565,183.216156 178.254562,182.913620 
	C193.171875,182.745300 200.699341,173.877792 203.956589,160.419647 
	C204.222534,159.320862 204.470291,157.701538 203.897964,156.999832 
	C200.210602,152.478729 204.112030,150.229294 206.265656,147.071411 
	C209.502075,142.325806 211.319946,136.857895 209.577438,131.083694 
	C208.614029,127.891212 209.641495,126.550636 211.738678,124.107376 
	C214.209534,121.228798 215.964676,116.530922 215.699326,112.787079 
	C215.286804,106.966309 217.154785,102.558517 220.676682,98.120239 
	C221.000000,128.277954 221.000000,158.555893 221.000000,189.000000 
	C171.645889,189.000000 122.291603,189.000000 72.468658,189.000000 
z"/>
<path fill="#FEFEFE" opacity="1.000000" stroke="none" 
	d="
M1.000000,111.468658 
	C1.667062,115.437561 2.604215,119.854103 2.951562,124.316551 
	C4.084859,138.876343 4.745161,153.477707 6.144480,168.009445 
	C6.630606,173.057800 8.785249,177.938293 10.086435,182.919342 
	C10.534517,184.634613 10.704931,186.422424 11.001095,188.588562 
	C7.683326,189.000000 4.366652,189.000000 1.000000,189.000000 
	C1.000000,163.312454 1.000000,137.624893 1.000000,111.468658 
z"/>
<path fill="#22B14C" opacity="1.000000" stroke="none" 
	d="
M101.260620,175.000122 
	C97.980301,174.230560 95.137642,173.549179 92.356606,172.672318 
	C87.213417,171.050674 82.106323,169.314575 76.228271,167.376984 
	C76.221725,167.301361 76.015717,166.021774 76.014450,164.741989 
	C75.994148,144.252472 75.941582,123.762474 76.101814,103.274200 
	C76.115852,101.478737 77.061264,98.858757 78.426392,98.036072 
	C90.302208,90.879257 96.921799,79.249054 104.320541,68.281837 
	C106.517700,65.024979 108.034615,61.266582 110.463837,58.216324 
	C120.801384,45.235943 120.969589,30.080704 119.883789,14.749421 
	C119.542534,9.930839 121.944489,8.625723 125.695358,8.079205 
	C133.672531,6.916893 135.869446,7.935322 138.574219,15.378265 
	C141.420563,23.210682 144.329575,31.133890 145.910324,39.270164 
	C146.863068,44.173981 145.661453,49.611374 144.848267,54.716671 
	C143.587280,62.633381 141.831528,70.471283 140.156479,78.999771 
	C142.131393,78.999771 143.889084,78.999771 145.646759,78.999771 
	C164.470474,78.999786 183.294189,78.993294 202.117905,79.003342 
	C208.645584,79.006828 213.261322,81.666756 213.972702,85.783295 
	C215.152451,92.610214 211.623764,99.049103 205.553772,101.208344 
	C203.547318,101.922089 201.571198,102.721092 199.618134,103.467003 
	C202.283386,104.446480 204.975342,105.435776 207.583725,106.394348 
	C209.879532,117.664680 204.560379,124.013702 193.672150,127.066757 
	C200.630264,129.887222 202.043671,132.646805 200.987411,139.996979 
	C200.290253,144.848434 194.641785,149.324463 188.684311,150.207626 
	C190.630508,152.704498 193.649673,155.188141 194.656784,158.319016 
	C195.433029,160.732193 194.484360,164.556610 192.887405,166.698212 
	C189.582047,171.130844 185.557755,175.052307 179.186310,175.032852 
	C153.366440,174.954056 127.546188,175.000122 101.260620,175.000122 
z"/>
<path fill="#22B14C" opacity="1.000000" stroke="none" 
	d="
M13.003321,147.192932 
	C11.337070,130.831894 9.728099,114.938339 7.964320,99.061974 
	C7.417240,94.137527 9.417212,92.826378 14.166219,92.901802 
	C30.309423,93.158150 46.459225,92.993240 62.606480,93.009865 
	C64.226517,93.011528 65.846405,93.153542 68.223083,93.266319 
	C68.223083,122.521950 68.223083,151.494431 68.223083,180.735138 
	C50.869778,180.735138 33.298370,180.735138 15.090879,180.735138 
	C14.391294,169.666046 13.696108,158.666534 13.003321,147.192932 
z"/>
</svg>