<?xml version="1.0" standalone="no"?>
<!DOCTYPE svg PUBLIC "-//W3C//DTD SVG 20010904//EN"
 "http://www.w3.org/TR/2001/REC-SVG-20010904/DTD/svg10.dtd">
<svg version="1.0" xmlns="http://www.w3.org/2000/svg"
 width="219.000000pt" height="190.000000pt" viewBox="0 0 219.000000 190.000000"
 preserveAspectRatio="xMidYMid meet" >

<rect x="0" y="-12.5%" width="150%" height="125%" fill="var(--background-color)" />

<g transform="translate(0.000000,190.000000) scale(0.100000,-0.100000)"
fill="var(--text-color)" stroke="none" stroke="none">
<path d="M1493 1890 c-27 -11 -43 -40 -43 -79 0 -38 -25 -42 -59 -10 -12 11
-36 25 -54 30 -42 12 -980 11 -1032 -1 -22 -5 -41 -14 -43 -19 -2 -6 -10 -11
-19 -11 -8 0 -32 -17 -53 -39 -47 -48 -68 -122 -53 -194 9 -38 7 -50 -8 -74
-27 -41 -42 -124 -30 -168 10 -36 -2 -85 -20 -85 -17 0 -31 -76 -26 -137 4
-52 1 -71 -17 -106 -43 -86 -20 -225 42 -248 15 -6 30 -16 34 -22 5 -9 86 -13
293 -15 157 -2 285 -5 285 -8 0 -2 -9 -65 -21 -139 -17 -115 -19 -146 -10
-207 12 -74 38 -169 50 -178 4 -3 18 -32 32 -65 21 -49 33 -64 65 -80 21 -11
40 -23 42 -27 5 -11 142 -10 142 1 0 5 13 12 30 16 30 7 70 47 70 71 0 8 5 14
10 14 6 0 10 20 10 45 0 25 -4 45 -10 45 -6 0 -10 40 -10 100 0 55 4 100 9
100 5 0 19 24 31 54 12 29 29 62 38 73 16 18 37 53 70 117 8 16 23 37 33 47 9
9 25 33 34 53 9 19 28 42 41 51 13 8 24 22 24 29 0 36 21 38 404 37 366 -2
375 -2 395 18 21 21 21 30 21 505 l0 485 -22 15 c-19 14 -68 16 -338 15 -173
0 -325 -4 -337 -9z m617 -505 l0 -435 -280 0 -280 0 0 435 0 435 280 0 280 0
0 -435z m-783 353 c15 -7 36 -20 47 -30 10 -9 36 -20 57 -23 l39 -7 0 -329 c0
-297 -2 -331 -17 -349 -10 -11 -22 -20 -27 -20 -5 0 -24 -11 -42 -25 -18 -14
-37 -25 -43 -25 -5 0 -18 -15 -30 -32 -11 -18 -28 -42 -38 -53 -25 -28 -73
-103 -73 -114 0 -6 -7 -14 -14 -18 -8 -5 -29 -35 -47 -68 -17 -33 -37 -64 -43
-70 -7 -5 -23 -35 -36 -65 -14 -30 -28 -57 -31 -60 -23 -19 -27 -56 -22 -184
l6 -138 -29 -25 c-25 -22 -36 -24 -78 -19 -55 6 -68 19 -91 88 -9 26 -20 48
-25 50 -5 2 -19 42 -31 89 l-23 86 23 171 c13 95 27 172 31 172 4 0 10 13 12
30 l5 30 -326 0 c-179 0 -331 4 -337 8 -23 16 -44 59 -44 91 0 34 43 121 60
121 5 0 21 5 35 10 l27 10 -41 38 c-67 62 -56 111 42 190 9 6 21 12 27 12 19
0 10 20 -13 29 -48 18 -62 63 -40 127 13 37 22 48 59 64 24 11 44 22 44 24 0
2 -16 20 -35 39 -37 37 -46 78 -22 101 6 7 21 25 32 40 11 15 29 32 40 36 34
15 979 12 1012 -2z"/>
<path d="M205 150 c-3 -5 -1 -10 4 -10 6 0 11 5 11 10 0 6 -2 10 -4 10 -3 0
-8 -4 -11 -10z"/>
</g>
</svg>
