<?xml version="1.0" standalone="no"?>
<!DOCTYPE svg PUBLIC "-//W3C//DTD SVG 20010904//EN"
 "http://www.w3.org/TR/2001/REC-SVG-20010904/DTD/svg10.dtd">
<svg version="1.0" xmlns="http://www.w3.org/2000/svg"
 width="220.000000pt" height="188.000000pt" viewBox="0 0 220.000000 188.000000"
 preserveAspectRatio="xMidYMid meet">

<rect x="0" y="-12.5%" width="150%" height="125%" fill="var(--background-color)" />

<g transform="translate(0.000000,188.000000) scale(0.100000,-0.100000)"
fill="var(--text-color)" stroke="none">
<path d="M1135 1846 l-36 -35 2 -158 3 -159 -34 -59 c-99 -177 -228 -363 -277
-400 l-46 -35 -22 20 c-20 19 -34 20 -351 20 -397 0 -374 7 -374 -122 0 -45 9
-192 20 -327 11 -135 24 -311 30 -391 9 -111 16 -151 29 -170 l18 -25 306 -3
c296 -2 307 -2 327 18 14 14 20 33 20 65 0 42 2 45 28 45 15 0 38 -7 52 -15
101 -59 68 -56 562 -53 421 3 456 4 491 22 101 50 174 187 136 258 -9 16 -6
25 14 47 45 48 60 89 55 155 -4 55 -2 64 26 104 27 38 31 52 32 116 1 59 6 79
28 114 23 37 26 52 26 130 0 86 -1 89 -32 119 -18 17 -43 36 -55 42 -15 7
-120 11 -321 11 l-299 0 25 153 c24 149 24 153 7 232 -23 106 -82 253 -116
288 -26 26 -31 27 -133 27 l-105 0 -36 -34z m191 -42 c27 -7 99 -164 118 -257
12 -56 11 -76 -9 -197 -13 -74 -28 -155 -34 -180 -6 -25 -11 -51 -11 -57 0
-10 74 -13 339 -13 l339 0 31 -26 c26 -21 31 -33 31 -67 0 -24 -9 -56 -20 -75
-20 -33 -85 -70 -125 -73 -12 0 -6 -5 15 -10 104 -29 89 -152 -24 -208 -40
-20 -46 -26 -30 -32 41 -15 57 -45 51 -96 -4 -41 -12 -54 -47 -85 -26 -24 -53
-38 -69 -38 -26 0 -26 0 7 -20 18 -11 37 -31 43 -44 29 -63 -31 -154 -116
-175 -28 -7 -185 -11 -448 -11 l-404 0 -66 35 c-44 23 -79 35 -106 35 l-41 0
0 344 0 344 35 22 c85 52 175 164 292 360 113 189 113 190 113 360 0 147 1
151 23 160 26 10 82 12 113 4z m-656 -1284 l0 -440 -264 0 -263 0 -12 162 c-7
90 -21 268 -32 397 -10 129 -19 254 -19 278 l0 43 295 0 295 0 0 -440z"/>
</g>
</svg>
